<svg xmlns="http://www.w3.org/2000/svg" viewBox="0 0 64 64">
  <defs>
    <linearGradient id="brandGrad" x1="0%" y1="0%" x2="100%" y2="100%">
      <stop offset="0%" stop-color="#6c5ce7" />
      <stop offset="100%" stop-color="#00cec9" />
    </linearGradient>
  </defs>
  <!-- Background Plate -->
  <rect width="64" height="64" rx="14" fill="#0a0a0f" />
  
  <!-- Content Container Scaled -->
  <g transform="translate(10, 10) scale(1.83)">
    <!-- Lucide Brain Path -->
    <path d="M12 5a3 3 0 1 0-5.997.125 4 4 0 0 0-2.526 5.77 4 4 0 0 0 .556 6.588A4 4 0 1 0 12 18Z" fill="none" stroke="url(#brandGrad)" stroke-width="2" stroke-linecap="round" stroke-linejoin="round"/>
    <path d="M12 5a3 3 0 1 1 5.997.125 4 4 0 0 1 2.526 5.77 4 4 0 0 1-.556 6.588A4 4 0 1 1 12 18Z" fill="none" stroke="url(#brandGrad)" stroke-width="2" stroke-linecap="round" stroke-linejoin="round"/>
    <path d="M15 13a4.5 4.5 0 0 1-3-4 4.5 4.5 0 0 1-3 4" fill="none" stroke="url(#brandGrad)" stroke-width="2" stroke-linecap="round" stroke-linejoin="round"/>
    <path d="M17.599 6.5a3 3 0 0 0 .399-1.375" fill="none" stroke="url(#brandGrad)" stroke-width="2" stroke-linecap="round" stroke-linejoin="round"/>
    <path d="M6.003 5.125A3 3 0 0 0 6.401 6.5" fill="none" stroke="url(#brandGrad)" stroke-width="2" stroke-linecap="round" stroke-linejoin="round"/>
    <path d="M3.477 10.896a4 4 0 0 1 .585-.396" fill="none" stroke="url(#brandGrad)" stroke-width="2" stroke-linecap="round" stroke-linejoin="round"/>
    <path d="M19.938 10.5a4 4 0 0 1 .585.396" fill="none" stroke="url(#brandGrad)" stroke-width="2" stroke-linecap="round" stroke-linejoin="round"/>
    <path d="M6 18a4 4 0 0 1-1.967-.516" fill="none" stroke="url(#brandGrad)" stroke-width="2" stroke-linecap="round" stroke-linejoin="round"/>
    <path d="M19.967 17.484A4 4 0 0 1 18 18" fill="none" stroke="url(#brandGrad)" stroke-width="2" stroke-linecap="round" stroke-linejoin="round"/>
  </g>
</svg>
